<svg xmlns="http://www.w3.org/2000/svg" aria-hidden="true" style="position:absolute;width:0;height:0;overflow:hidden">
  <defs>
    <symbol id="icon-linkedin" viewBox="0 0 32 32">
      <path d="M31.992 32v-.001H32V20.263c0-5.741-1.236-10.164-7.948-10.164-3.227 0-5.392 1.771-6.276 3.449h-.093v-2.913h-6.364v21.364h6.627V21.42c0-2.785.528-5.479 3.977-5.479 3.399 0 3.449 3.179 3.449 5.657v10.401h6.62zM.528 10.636h6.635V32H.528V10.636zM3.843 0C1.722 0 0 1.721 0 3.843s1.721 3.879 3.843 3.879c2.121 0 3.843-1.757 3.843-3.879C7.685 1.722 5.963 0 3.843 0z"/>
    </symbol>
    <symbol id="icon-twitter" viewBox="0 0 32 32">
      <path d="M32 6.078c-1.19.522-2.458.868-3.78 1.036 1.36-.812 2.398-2.088 2.886-3.626-1.268.756-2.668 1.29-4.16 1.588C25.742 3.794 24.026 3 22.154 3c-3.632 0-6.556 2.948-6.556 6.562 0 .52.044 1.02.152 1.496-5.454-.266-10.28-2.88-13.522-6.862-.566.982-.898 2.106-.898 3.316 0 2.272 1.17 4.286 2.914 5.452-1.054-.02-2.088-.326-2.964-.808v.072c0 3.188 2.274 5.836 5.256 6.446-.534.146-1.116.216-1.72.216-.42 0-.844-.024-1.242-.112.85 2.598 3.262 4.508 6.13 4.57-2.232 1.746-5.066 2.798-8.134 2.798-.538 0-1.054-.024-1.57-.09C2.906 27.93 6.35 29 10.064 29c12.072 0 18.672-10 18.672-18.668 0-.29-.01-.57-.024-.848C30.014 8.56 31.108 7.406 32 6.078z"/>
    </symbol>
    <symbol id="icon-customer6" viewBox="0 0 59 32">
      <path d="M30.588 15.682c-.254-.338-.375-.737-.346-1.138v-1.65c0-.506.115-.89.344-1.153s.624-.394 1.183-.393c.525 0 .898.112 1.119.336.24.286.358.635.331.987v.388h-.94v-.393c.003-.129-.006-.257-.027-.384-.014-.087-.061-.168-.134-.228-.096-.066-.218-.097-.34-.089-.129-.008-.256.025-.358.094-.082.067-.136.156-.156.252-.027.135-.039.271-.037.408v2.003c-.015.193.027.387.121.562.047.06.112.107.188.136s.16.041.242.032c.12.009.24-.024.333-.091.077-.066.126-.151.14-.243.022-.133.032-.267.029-.401v-.406h.94v.371c.026.367-.088.732-.325 1.038-.216.245-.584.368-1.125.368s-.949-.131-1.181-.403zM34.501 15.699c-.237-.257-.356-.631-.356-1.127v-1.736c0-.49.119-.861.356-1.113s.634-.377 1.191-.376c.553 0 .947.125 1.185.376.237.252.358.623.358 1.113v1.736c0 .49-.121.866-.362 1.125s-.634.388-1.181.388-.951-.131-1.191-.386zm1.628-.417c.085-.161.124-.337.113-.514v-2.125a.9427.9427 0 0 0-.111-.504c-.048-.061-.114-.109-.192-.138s-.164-.04-.248-.03c-.084-.01-.17 0-.248.03s-.145.077-.193.138a.9224.9224 0 0 0-.113.504v2.136c-.012.177.027.353.113.514.055.054.122.098.198.127s.158.045.242.045.166-.015.242-.045c.076-.03.143-.073.198-.127v-.01zM38.364 11.398h1.012l.761 3.203.778-3.203h.984l.099 4.623h-.728l-.078-3.213-.751 3.213h-.584l-.778-3.225-.072 3.225h-.735l.091-4.623zM43.133 11.398h1.576c.908 0 1.362.438 1.362 1.313 0 .838-.478 1.257-1.434 1.256H44.1v2.055h-.973l.006-4.623zm1.346 1.976c.096.011.194.003.286-.022s.177-.067.249-.124c.112-.156.161-.339.14-.522a1.457 1.457 0 0 0-.047-.42c-.014-.046-.038-.089-.072-.127s-.075-.069-.123-.093a1.0118 1.0118 0 0 0-.434-.074h-.377v1.382h.377zM47.474 11.398h1.045l1.072 4.623h-.907l-.212-1.066h-.932l-.218 1.066h-.92l1.072-4.623zm.893 3.021-.364-1.941-.364 1.941h.728zM50.456 11.398h.681l1.304 2.637v-2.637h.807v4.623H52.6l-1.311-2.753v2.753h-.835l.002-4.623zM55.139 14.258l-1.084-2.854h.912l.661 1.833.621-1.833h.893l-1.07 2.854v1.763h-.934v-1.763zM32.09 18.042v.242h-.794v1.879h-.333v-1.879h-.798v-.242h1.924zM34.578 20.163h-.257a.1189.1189 0 0 1-.072-.02.1131.1131 0 0 1-.043-.049l-.23-.504h-1.101l-.23.504a.136.136 0 0 1-.035.057.1189.1189 0 0 1-.072.02h-.257l.973-2.12h.339l.984 2.112zm-1.61-.788h.918l-.389-.863a1.4467 1.4467 0 0 1-.072-.2c-.014.04-.025.079-.037.113l-.035.089-.385.861zM36.256 19.954c.061.003.122.003.183 0 .053-.005.105-.013.156-.025.048-.01.094-.023.14-.039.043-.015.086-.034.13-.052v-.477h-.389c-.01 0-.019-.001-.028-.004a.0698.0698 0 0 1-.039-.03.0384.0384 0 0 1-.005-.021v-.163h.755v.813c-.062.038-.127.072-.195.101-.069.03-.142.054-.216.072-.08.02-.161.035-.243.044-.094.009-.189.014-.284.013-.168.001-.334-.026-.49-.079-.146-.05-.278-.126-.389-.222-.108-.097-.194-.211-.251-.336-.061-.141-.092-.29-.09-.44-.002-.151.028-.301.088-.443.056-.126.141-.24.251-.336.111-.095.243-.17.389-.22.167-.054.343-.081.521-.079.091 0 .181.006.27.018.079.011.157.029.232.054.068.022.133.05.195.084.06.033.116.07.169.111l-.093.131c-.007.012-.018.022-.032.029s-.029.011-.044.011a.123.123 0 0 1-.06-.017c-.029-.013-.06-.03-.095-.05a.947.947 0 0 0-.13-.057c-.058-.02-.118-.036-.179-.047a1.4517 1.4517 0 0 0-.247-.018c-.128-.001-.256.019-.376.059-.108.038-.206.095-.286.168a.7341.7341 0 0 0-.181.264.9902.9902 0 0 0 0 .707c.043.1.109.191.195.267.08.073.177.13.284.168.124.037.255.051.385.042zM39.357 19.921h1.062v.242h-1.387v-2.12h.333l-.008 1.879zM41.524 20.162h-.333v-2.12h.333v2.12zM42.761 18.052c.02.01.037.023.051.039l1.422 1.598a.482.482 0 0 1 0-.076V18.033h.29v2.129h-.167a.1463.1463 0 0 1-.072-.012.2112.2112 0 0 1-.053-.04l-1.42-1.597v1.649h-.278v-2.12h.173a.14.14 0 0 1 .054.01zM46.974 18.042v.233h-1.179v.7h.955v.225h-.955v.724h1.179v.233h-1.521v-2.115h1.521zM12.112 4.948l14.772 3.619V21.25l-14.772-3.618V4.947zm-.948-1.081v14.382l16.666 4.084V7.953L11.164 3.867z"/>
      <path d="M20.096 29.01 3.429 24.922V10.541l16.667 4.086v14.382z"/>
      <path d="m11.44 4.785 14.58 3.574-6.2 5.352-14.582-3.576 6.202-5.35zm-.276-.918-7.735 6.675 16.667 4.086 7.733-6.675-16.666-4.086zM21.034 28.201l6.796-5.866-6.796-1.667V28.2z"/>
    </symbol>
    <symbol id="icon-antenna" viewBox="0 0 32 32">
      <path fill="#2e2f42" d="m30.773 22.098-8.443-8.505.937-4.615c.242.094.499.144.758.146h.006c1.192.014 2.17-.941 2.184-2.133s-.941-2.17-2.133-2.184c-1.192-.014-2.17.941-2.184 2.133-.003.255.039.509.125.749l-4.96.605L8.972.161a.534.534 0 0 0-.377-.16.5319.5319 0 0 0-.373.155L6.709 1.66a.5335.5335 0 0 0 0 .754l.814.826C4.37 9.038 5.394 16.218 10.042 20.903c.043.041.092.074.146.098-.034.18-.051.364-.052.547v6.187h-6.4c-1.472.002-2.665 1.195-2.667 2.667v1.067c0 .295.239.533.533.533h24.533c.295 0 .533-.239.533-.533v-1.067c-.002-1.472-1.195-2.665-2.667-2.667h-6.4v-2.742c1.003.21 2.024.317 3.049.32a14.854 14.854 0 0 0 7.04-1.783l.818.823a.534.534 0 0 0 .377.16c.14-.001.274-.056.373-.155l1.513-1.504a.5335.5335 0 0 0 0-.754zM23.28 6.233c.418-.415 1.093-.414 1.509.004s.414 1.093-.004 1.508c-.2.199-.47.31-.752.31h-.003c-.589-.003-1.064-.483-1.061-1.072.002-.282.115-.552.314-.751h-.002zm-1.256 3.505-.598 2.946-1.175-1.182 1.774-1.763zm-.605-.902-1.92 1.909-1.485-1.493 3.405-.415zM24.004 28.8c.884 0 1.6.716 1.6 1.6v.533H2.137V30.4c0-.884.716-1.6 1.6-1.6h20.267zm-7.467-2.133v1.067h-5.333v-1.067h5.333zM11.204 25.6v-4.053c0-1.294 1.196-2.347 2.667-2.347s2.667 1.053 2.667 2.347V25.6h-5.333zm6.4-1.696v-2.357c0-1.882-1.675-3.413-3.733-3.413a3.8003 3.8003 0 0 0-3.281 1.786C6.532 15.646 5.619 9.275 8.311 4.033l18.602 18.708a13.8184 13.8184 0 0 1-9.309 1.163zm11.289-.684L7.836 2.039l.755-.752 7.935 7.98c.004 0 .006.007.01.01l13.115 13.191-.757.752z" style="fill:var(--color1, #2e2f42)"/>
      <path fill="#4d5ae5" d="M13.876 20.267h-.005c-.884-.001-1.601.714-1.602 1.598s.714 1.601 1.598 1.602h.005c.884.001 1.601-.714 1.602-1.598s-.714-1.601-1.598-1.602zm.373 1.978c-.1.1-.236.156-.378.155a.5343.5343 0 0 1-.531-.536.5325.5325 0 0 1 .53-.53c.295.002.532.242.531.536a.5325.5325 0 0 1-.157.375h.005z" style="fill:var(--color2, #4d5ae5)"/>
    </symbol>
    <symbol id="icon-astronaut" viewBox="0 0 32 32">
      <path fill="#4d5ae5" d="M31.974 4.524a.5343.5343 0 0 0-.43-.363l-1.91-.278-.855-1.731c-.179-.365-.777-.365-.956 0l-.855 1.731-1.91.278a.5354.5354 0 0 0-.431.363.5342.5342 0 0 0 .135.547l1.383 1.348-.326 1.903c-.034.2.048.402.212.522.166.121.382.135.562.04l1.709-.899 1.709.899c.078.041.164.061.249.061.11 0 .221-.034.314-.102a.5347.5347 0 0 0 .212-.522l-.326-1.903 1.383-1.348a.5363.5363 0 0 0 .135-.547zm-2.463 1.327a.5335.5335 0 0 0-.153.472l.191 1.114-1-.526c-.078-.041-.163-.061-.249-.061s-.17.02-.249.061l-1.001.526.191-1.114a.5344.5344 0 0 0-.153-.472l-.81-.789 1.119-.163a.5324.5324 0 0 0 .402-.292l.5-1.013.5 1.013c.078.157.228.267.402.292l1.119.163-.809.789zM26.134 20.522h-1.067v1.067h1.067v-1.067zM26.134 22.656h-1.067v1.067h1.067v-1.067zM27.2 21.589h-1.067v1.067H27.2v-1.067zM25.067 21.589H24v1.067h1.067v-1.067zM22.4 26.389h-1.067v1.067H22.4v-1.067zM22.4 28.522h-1.067v1.067H22.4v-1.067zM23.467 27.456H22.4v1.067h1.067v-1.067zM21.333 27.456h-1.067v1.067h1.067v-1.067zM16 24.256h-1.067v1.067H16v-1.067zM16 26.389h-1.067v1.067H16v-1.067zM17.067 25.322H16v1.067h1.067v-1.067zM14.933 25.322h-1.067v1.067h1.067v-1.067zM5.867 6.122H4.8v1.067h1.067V6.122zM5.867 8.255H4.8v1.067h1.067V8.255z" style="fill:var(--color2, #4d5ae5)"/>
      <path fill="#4d5ae5" d="M6.933 7.189H5.866v1.067h1.067V7.189zM4.8 7.189H3.733v1.067H4.8V7.189z" style="fill:var(--color2, #4d5ae5)"/>
      <path fill="#2e2f42" d="M24.715 14.159c-.287-.388-.709-.637-1.188-.705-.481-.068-.956.058-1.34.352l-1.252.96-1.898 1.417-1.358-.541c2.421-1.086 4.114-3.508 4.114-6.32 0-3.823-3.123-6.933-6.961-6.933s-6.961 3.11-6.961 6.933c0 1.386.414 2.674 1.12 3.758l-2.764-.024h-.005c-.009 0-.015.004-.023.005a.5147.5147 0 0 0-.155.031c-.013.005-.026.008-.038.013-.006.003-.013.003-.019.006l-3.233 1.596c-.001 0-.001 0-.001.001l-1.893.911a.3967.3967 0 0 0-.063.035c-.755.502-1.012 1.489-.598 2.295.22.429.595.745 1.056.889.178.055.359.083.539.083.29 0 .577-.071.839-.211l1.388-.738 2.264-1.169 1.357-.008L2.2 22.211c-.001.001-.001.001-.002.001L.859 23.545c-.316.315-.49.732-.49 1.178s.174.863.49 1.179c.325.323.752.485 1.179.485s.854-.162 1.18-.485l1.314-1.309 1.741-1.3.901.897-1.762 1.754c0 .001-.001.001-.002.001l-1.339 1.333c-.316.315-.49.732-.49 1.178s.174.863.49 1.179c.325.323.753.485 1.18.485s.855-.162 1.18-.485l3.482-3.467c.001-.001.001-.001.001-.002l1.01-1-.004-.004c.006-.006.015-.009.022-.015l5.166-5.658 3.471.494c.025.004.05.005.075.005.065 0 .127-.015.187-.038.018-.006.033-.015.05-.023.019-.01.039-.015.058-.027l3.213-2.133c.012-.008.018-.021.029-.029.013-.01.029-.014.041-.026l1.271-1.191c.662-.62.753-1.635.212-2.362zM2.13 17.77a.714.714 0 0 1-.558.052.7167.7167 0 0 1-.427-.358.714.714 0 0 1 .214-.902l1.314-.632.449 1.313-.992.527zm3.498-1.828-1.548.8-.439-1.283 2.027-1.001-.04 1.484zm15.099-6.62c0 .918-.219 1.785-.599 2.559l-4.181-1.899c-.044-.573-.341-1.075-.788-1.388l1.464-4.86c2.378.756 4.105 2.974 4.105 5.588zm-11.789 0c0-3.235 2.644-5.867 5.894-5.867.253 0 .5.021.745.052l-1.432 4.754c-.019-.001-.037-.006-.057-.006-1.033 0-1.873.837-1.873 1.867s.84 1.867 1.873 1.867c.694 0 1.294-.383 1.618-.945l3.862 1.755c-1.075 1.446-2.795 2.39-4.737 2.39-3.25 0-5.894-2.632-5.894-5.867zm5.956.8c0 .441-.362.8-.806.8s-.806-.359-.806-.8c0-.441.362-.8.806-.8s.806.359.806.8zM2.465 25.146c-.236.234-.619.234-.854.001-.114-.114-.176-.263-.176-.423s.062-.309.176-.421l.962-.958.851.848-.959.955zm3.214 3.734c-.236.234-.619.235-.855.001-.114-.114-.176-.263-.176-.423s.062-.309.176-.421l.963-.959.852.848-.96.955zm3.481-3.469c-.001 0-.001 0-.002.001l-1.765 1.76-.852-.848 1.763-1.755s.001-.001.002-.001c.04-.04.065-.088.09-.135.007-.014.02-.026.026-.04.017-.041.019-.085.026-.129.003-.025.014-.047.014-.073 0-.036-.013-.07-.02-.106-.006-.032-.006-.065-.019-.095-.02-.05-.055-.094-.091-.138-.01-.012-.014-.027-.025-.038h-.001c-.001 0-.001-.002-.001-.002l-1.607-1.6c-.017-.017-.039-.024-.058-.038a.5067.5067 0 0 0-.087-.058c-.03-.015-.061-.024-.093-.033a.5073.5073 0 0 0-.103-.02.5002.5002 0 0 0-.095.005.5307.5307 0 0 0-.104.02c-.034.011-.063.027-.094.045-.02.011-.042.015-.061.029L4.23 23.486l-.901-.897 2.399-2.386 4.361 4.289-.928.919zm6.819-7.017c-.015-.002-.03.004-.045.003a.5556.5556 0 0 0-.115.007.5364.5364 0 0 0-.088.021.5413.5413 0 0 0-.097.047.4923.4923 0 0 0-.083.061c-.013.011-.028.017-.04.029l-4.698 5.146-4.328-4.257 2.833-2.818c.209-.208.21-.546.002-.755a.5314.5314 0 0 0-.381-.156v-.001l-2.219.013.028-1.607 3.104.027c1.265 1.294 3.029 2.101 4.981 2.101.437 0 .864-.045 1.279-.123.04.032.079.065.13.085l2.41.96.152.758.178.885-3.003-.427zm4.041.178-.313-1.558 1.446-1.08.947 1.257-2.08 1.381zm3.754-2.831-.838.785-.931-1.236.831-.637c.155-.119.351-.168.543-.143.193.027.364.128.48.284.217.292.18.699-.085.947z" style="fill:var(--color1, #2e2f42)"/>
      <path fill="#2e2f42" d="m13.602 18.544-2.143-2.133c-.207-.207-.545-.207-.753 0l-2.142 2.133c-.1.101-.157.236-.157.378s.056.278.157.378l2.142 2.133c.104.103.241.155.377.155s.273-.052.376-.155l2.143-2.133c.1-.1.157-.236.157-.378s-.057-.278-.157-.378zm-2.519 1.759-1.387-1.381 1.387-1.381 1.387 1.381-1.387 1.381zM17.164 5.071l-.258 1.036c.071.018 1.738.452 1.738 2.149h1.067c0-2.017-1.666-2.965-2.547-3.185zM19.711 9.322h-1.067v1.067h1.067V9.322z" style="fill:var(--color1, #2e2f42)"/>
    </symbol>
    <symbol id="icon-clock" viewBox="0 0 32 32">
      <path fill="#2e2f42" d="M31.297 15.301C31.295 6.849 24.442-.002 15.989 0S.686 6.855.688 15.308c.001 6.658 4.307 12.551 10.649 14.576.061.019.124.029.187.029.121 0 .239-.032.342-.094.135-.08.236-.207.283-.356l3.865-12.25c1.057-.005 1.909-.866 1.903-1.923s-.866-1.909-1.923-1.903c-.284.001-.565.067-.82.191l-5.106-5.107a.6372.6372 0 0 0-.902.016.637.637 0 0 0 0 .886l5.103 5.109c-.392.799-.168 1.764.536 2.309l-3.683 11.673C3.844 25.783.118 17.71 2.799 10.432S13.553-.572 20.831 2.109c7.278 2.681 11.004 10.754 8.323 18.032a14.0422 14.0422 0 0 1-7.462 7.973l-.398-1.874a.6373.6373 0 0 0-.756-.492.643.643 0 0 0-.293.148l-3.837 3.426a.6366.6366 0 0 0-.052.9c.076.085.174.149.283.184l4.899 1.564c.335.108.694-.077.802-.412.034-.106.04-.219.017-.328l-.391-1.839c5.664-2.388 9.342-7.942 9.329-14.089zm-15.305-.637c.352 0 .638.286.638.638s-.286.638-.638.638c-.352 0-.638-.285-.638-.638s.285-.638.638-.638zm2.101 14.864 2.184-1.948.603 2.84-2.787-.892z" style="fill:var(--color1, #2e2f42)"/>
      <path fill="#4d5ae5" d="M15.354 3.185V4.46c0 .352.285.638.638.638s.638-.285.638-.638V3.185c0-.352-.286-.638-.638-.638s-.638.286-.638.638zM3.876 14.664c-.352 0-.638.286-.638.638s.285.638.638.638h1.275c.352 0 .638-.285.638-.638s-.285-.638-.638-.638H3.876zM28.108 15.939c.352 0 .638-.285.638-.638s-.285-.638-.638-.638h-1.275c-.352 0-.638.286-.638.638s.286.638.638.638h1.275z" style="fill:var(--color2, #4d5ae5)"/>
    </symbol>
    <symbol id="icon-customer1" viewBox="0 0 59 32">
      <path d="m21.714 4 4.004 3.815-7.433-.004v18.51h19.429v-7.077l4 3.811V4.001h-20zm15.824 14.796L26.184 7.979h11.354v10.817zm-3.525 4.817H21.36V11.164h.894V22.77h11.759v.843zm-10.13 6.136-.472-.97h-.389l.684 1.284v.748h.353v-.748l.684-1.284h-.388l-.472.97zm1.739-.969h.084l.767 2.031h-.368l-.164-.476h-.786l-.164.476h-.367l.765-2.031h.234zm-.373 1.278h.595l-.298-.862-.297.862zm2.455-.337c-.015-.02-.03-.038-.044-.057-.052-.069-.093-.135-.121-.2s-.043-.132-.043-.201c0-.106.022-.197.066-.273s.106-.135.186-.176c.08-.042.173-.063.28-.063.103 0 .192.021.266.063.075.041.133.095.173.163s.061.142.061.223c0 .064-.012.123-.035.176s-.055.101-.096.145a.9635.9635 0 0 1-.142.124l-.141.103.402.475a.8805.8805 0 0 0 .036-.082c.034-.089.052-.188.052-.297h.29c0 .099-.01.192-.029.28s-.049.17-.091.245a.7238.7238 0 0 1-.058.09l.298.351h-.389l-.118-.139a.7956.7956 0 0 1-.208.114.9383.9383 0 0 1-.315.053c-.135 0-.252-.025-.35-.074s-.175-.117-.229-.204c-.053-.087-.08-.186-.08-.297 0-.083.017-.155.052-.218s.081-.122.141-.176c.055-.05.118-.1.188-.15zm.167.204-.042.031c-.049.04-.086.079-.11.116s-.039.07-.046.1a.3242.3242 0 0 0-.011.081c0 .059.013.113.038.162s.064.087.113.116c.05.028.111.042.183.042.077 0 .152-.017.225-.052a.6099.6099 0 0 0 .103-.064l-.452-.532zm.08-.371.125-.084c.059-.039.1-.077.126-.114s.038-.086.038-.142c0-.048-.019-.093-.056-.134s-.09-.061-.158-.061c-.047 0-.087.011-.12.034s-.057.05-.074.087a.2842.2842 0 0 0-.024.119c0 .042.011.085.032.13s.051.09.088.138c.008.01.015.02.023.029zm3.554.596h-.349c-.01.088-.032.163-.064.225s-.079.106-.141.138c-.061.032-.142.047-.241.047-.082 0-.152-.016-.211-.049s-.107-.079-.145-.138c-.037-.059-.065-.131-.084-.213s-.026-.177-.026-.279v-.172c0-.108.01-.204.029-.287s.051-.156.091-.213c.04-.058.09-.101.149-.131s.129-.045.209-.045c.098 0 .177.017.237.05s.106.08.137.142c.032.062.052.137.061.225h.349c-.014-.136-.052-.256-.114-.361s-.148-.187-.259-.247c-.112-.06-.248-.089-.41-.089-.127 0-.242.022-.345.067s-.188.109-.261.194c-.073.084-.128.185-.167.303s-.057.25-.057.396v.169c0 .146.019.278.056.396s.093.219.165.303c.072.083.158.147.258.192s.213.067.339.067c.164 0 .303-.03.417-.089s.203-.141.266-.244c.063-.104.1-.223.112-.356zm1.938-.299v-.112c0-.153-.02-.291-.061-.412s-.097-.226-.172-.311c-.074-.087-.163-.152-.266-.197s-.218-.068-.343-.068c-.125 0-.239.023-.342.068s-.191.11-.266.197c-.074.086-.132.189-.173.311s-.061.258-.061.412v.112c0 .154.02.291.061.413s.1.226.176.311c.075.086.164.151.266.197s.217.067.342.067c.126 0 .24-.022.343-.067s.192-.111.265-.197c.074-.086.132-.189.172-.311s.06-.259.06-.413zm-.351-.114v.114c0 .113-.011.214-.033.301s-.053.161-.095.222c-.042.059-.093.105-.153.135s-.13.045-.208.045c-.077 0-.146-.015-.206-.045s-.113-.076-.156-.135c-.043-.06-.075-.134-.098-.222s-.033-.188-.033-.301v-.114c0-.113.011-.213.033-.3s.054-.16.096-.219c.043-.059.094-.104.155-.134s.129-.046.206-.046.147.015.208.046c.061.03.113.074.155.134s.075.132.096.219c.022.087.033.186.033.3z"/>
    </symbol>
    <symbol id="icon-customer2" viewBox="0 0 59 32">
      <path d="M28.636 3.391h-.078c-.12-.007-.24-.01-.36-.013h-.26c-.227 0-.458.006-.688.017a.451.451 0 0 0-.052 0c-2.082.118-4.123.638-6.009 1.533l-.247.119v12.652l.578-.196c.507-.174 1.048-.331 1.607-.477 1.512-.388 3.065-.595 4.626-.615v1.662c-.207.002-.408.007-.609.017h-.048c-1.201.066-2.393.249-3.559.546-1.477.37-2.901.925-4.24 1.652V4.061c1.39-.811 2.888-1.42 4.448-1.809 1.37-.354 2.778-.535 4.192-.541h.244c.292.007.577.02.844.041.705.049 1.404.161 2.089.333v1.636c-.666-.155-1.342-.257-2.024-.305-.014-.001-.028-.002-.041-.004-.141-.012-.282-.024-.414-.024zm2.88 1.673c.363.028.739.041 1.119.041 1.487-.005 2.967-.195 4.407-.565 1.476-.371 2.9-.927 4.238-1.654v15.938c-1.391.81-2.889 1.419-4.449 1.809-1.37.352-2.778.533-4.192.539-1.072.009-2.14-.117-3.18-.375V4.756c.246.057.499.109.756.153.422.071.867.123 1.301.155zm8.111.123-.578.195c-.532.179-1.068.339-1.608.481-1.57.403-3.183.61-4.804.616-.377 0-.724-.01-1.06-.032l-.461-.03v13.015l.396.035c.367.032.746.048 1.128.048a15.335 15.335 0 0 0 3.783-.49c1.018-.255 2.008-.611 2.956-1.062l.247-.119V5.188zM20.421 25.836c-.083-.086-.183-.154-.294-.199s-.23-.066-.349-.061a.953.953 0 0 0-.372.07.8595.8595 0 0 0-.289.19.828.828 0 0 0-.186.291.9573.9573 0 0 0-.067.359v2.168c-.005.153.024.305.085.445.051.111.125.21.217.291.087.073.188.126.298.154.105.03.214.045.324.045.121.001.24-.025.35-.076a.9058.9058 0 0 0 .289-.201c.08-.084.145-.183.189-.291.046-.109.07-.227.069-.346v-.243h-.567v.193c.002.066-.01.132-.033.193a.3501.3501 0 0 1-.082.122.3305.3305 0 0 1-.119.062.367.367 0 0 1-.119.02c-.051.006-.102-.002-.149-.022s-.087-.053-.117-.094a.5117.5117 0 0 1-.075-.291v-2.021a.686.686 0 0 1 .069-.324c.029-.046.071-.082.12-.105s.104-.032.157-.025c.049-.002.097.008.141.03s.082.053.112.092c.063.083.097.186.094.291v.187h.561v-.221a1.022 1.022 0 0 0-.069-.379.8931.8931 0 0 0-.189-.305zM23.788 25.811a1.005 1.005 0 0 0-.645-.238.976.976 0 0 0-.338.061c-.11.039-.212.1-.299.177a.8858.8858 0 0 0-.22.304 1.009 1.009 0 0 0-.082.42v2.079c-.004.146.024.292.082.426.051.112.126.211.22.291.087.08.188.143.299.183.108.04.223.061.338.061s.23-.021.338-.061a.934.934 0 0 0 .306-.183c.09-.081.163-.18.214-.291.058-.134.086-.279.082-.426v-2.079a1.009 1.009 0 0 0-.082-.42.9268.9268 0 0 0-.214-.304zm-.265 2.803c.005.055-.003.111-.022.163s-.05.099-.09.138c-.075.063-.169.097-.267.097s-.192-.034-.267-.097c-.04-.038-.071-.085-.09-.138s-.027-.108-.022-.163v-2.079c-.005-.055.003-.111.022-.163s.05-.099.09-.138c.075-.063.169-.097.267-.097s.192.034.267.097c.04.038.071.085.09.138s.027.108.022.163v2.079zM28.21 29.543v-3.936h-.545l-.716 2.084h-.01l-.721-2.084h-.539v3.936h.562v-2.395h.01l.551 1.693h.28l.555-1.693h.01v2.395h.562zM31.405 25.882a.7853.7853 0 0 0-.318-.215 1.2542 1.2542 0 0 0-.408-.061h-.835v3.936h.561v-1.537h.289c.175.008.349-.029.506-.108a.8165.8165 0 0 0 .308-.301.9396.9396 0 0 0 .129-.343c.022-.148.032-.298.03-.448.006-.189-.013-.378-.055-.562a.8275.8275 0 0 0-.207-.362zm-.289 1.2a.4899.4899 0 0 1-.052.205.3127.3127 0 0 1-.145.138.5742.5742 0 0 1-.265.049h-.256v-1.338h.289c.087-.004.174.013.253.049a.32.32 0 0 1 .132.145c.031.069.047.144.049.219v.262c0 .092.006.186 0 .27h-.006zM34.062 25.606h-.46l-.867 3.936h.561l.165-.846h.765l.165.846h.561l-.889-3.936zm-.518 2.555.276-1.427h.01l.275 1.427h-.561zM37.686 27.978h-.01l-.847-2.371h-.539v3.936h.561v-2.367h.012l.857 2.367h.528v-3.936h-.561v2.371zM41.113 25.606l-.451 1.565h-.012l-.451-1.565h-.594l.77 2.273v1.664h.561v-1.664l.77-2.273h-.594zM18.857 30.654h.27v.759h.184v-.759h.269v-.155h-.723v.155zM21.13 30.498l-.354.914h.195l.075-.208h.364l.078.208h.2l-.363-.914h-.195zm-.029.553.124-.339.124.339H21.1zM23.376 31.076h.211v.118a.3566.3566 0 0 1-.217.077.2297.2297 0 0 1-.193-.087.3894.3894 0 0 1-.068-.238c0-.203.088-.305.263-.305a.194.194 0 0 1 .207.145l.181-.035c-.039-.179-.168-.269-.387-.269a.458.458 0 0 0-.319.118c-.046.045-.082.1-.104.161s-.032.126-.027.19c-.005.125.036.248.117.343a.4459.4459 0 0 0 .347.134c.143.004.282-.048.387-.145v-.36h-.396v.154zM25.67 30.498h-.185v.914h.64v-.155h-.455v-.759zM27.61 30.498h-.185v.914h.185v-.914zM29.507 31.109l-.374-.61h-.179v.914h.172v-.597l.367.597h.184v-.914h-.169v.61zM31.221 31.01h.455v-.155h-.455v-.201h.49v-.155h-.675v.914h.694v-.155h-.509v-.247zM35.378 30.859h-.36v-.36h-.184v.914h.184v-.4h.36v.4h.184v-.914h-.184v.36zM37.103 31.01h.457v-.155h-.457v-.201h.492v-.155h-.675v.914h.692v-.155h-.509v-.247zM39.442 31.01c.159-.025.24-.109.24-.254.005-.039-.001-.078-.017-.114s-.041-.067-.073-.089a.5157.5157 0 0 0-.267-.054h-.387v.914h.184v-.382h.036a.262.262 0 0 1 .114.02c.027.017.049.04.065.067l.2.291h.22l-.111-.179a.6425.6425 0 0 0-.202-.219zm-.185-.126h-.136v-.23h.145c.063-.005.126.002.187.022a.1168.1168 0 0 1 .04.095c-.001.018-.006.035-.014.051s-.02.029-.035.04a.5365.5365 0 0 1-.187.022zM41.206 31.01h.455v-.155h-.455v-.201h.492v-.155h-.676v.914h.694v-.155h-.509v-.247z"/>
    </symbol>
    <symbol id="icon-customer3" viewBox="0 0 59 32">
      <path d="M21.034 28.128c.009 0 .018.002.027.005s.016.008.022.014l.126.119c-.098.096-.219.173-.355.225-.159.057-.331.085-.503.081-.162.003-.323-.023-.473-.076a1.0441 1.0441 0 0 1-.357-.213.9354.9354 0 0 1-.23-.329 1.0804 1.0804 0 0 1-.08-.422c-.002-.144.027-.288.087-.423a.9908.9908 0 0 1 .244-.329c.108-.093.237-.166.379-.214.155-.051.321-.077.487-.076.155-.003.309.02.453.069.125.046.24.111.339.19l-.106.127a.0868.0868 0 0 1-.027.023.07.07 0 0 1-.043.009.1072.1072 0 0 1-.046-.014l-.057-.034-.079-.043a.8992.8992 0 0 0-.106-.042 1.1597 1.1597 0 0 0-.144-.034 1.181 1.181 0 0 0-.188-.014c-.12-.001-.239.018-.35.057a.8024.8024 0 0 0-.274.159.7294.7294 0 0 0-.178.253.8566.8566 0 0 0-.065.334c-.002.116.02.23.065.34.038.093.098.179.175.252.072.068.162.122.262.156.103.036.213.055.325.054.064.001.129-.003.192-.011a.784.784 0 0 0 .292-.09.9746.9746 0 0 0 .125-.084.1046.1046 0 0 1 .06-.022zM24.678 27.532c.002.143-.027.285-.085.419-.051.122-.132.233-.238.326s-.232.166-.373.214c-.309.101-.65.101-.959 0-.14-.049-.266-.122-.371-.214-.105-.095-.187-.206-.24-.329a1.0743 1.0743 0 0 1 0-.84.982.982 0 0 1 .24-.33c.106-.09.232-.16.371-.206.308-.102.651-.102.959 0 .14.049.267.122.372.214.104.094.185.204.238.325.058.135.087.278.085.422zm-.331 0a.892.892 0 0 0-.06-.337.6874.6874 0 0 0-.169-.252.7473.7473 0 0 0-.267-.159 1.122 1.122 0 0 0-.697 0 .7473.7473 0 0 0-.267.159.678.678 0 0 0-.17.252c-.08.219-.08.454 0 .674.036.093.094.179.17.252.074.069.165.123.267.158.225.072.472.072.697 0a.7539.7539 0 0 0 .267-.158.7.7 0 0 0 .169-.252.8729.8729 0 0 0 .06-.337zM27.164 27.885l.033.076c.013-.027.024-.051.036-.076s.026-.05.041-.074l.806-1.252c.016-.022.03-.035.046-.039a.2091.2091 0 0 1 .066-.007h.238v2.036h-.282v-1.56a.409.409 0 0 1 0-.07l-.811 1.269c-.01.019-.027.035-.047.046s-.045.017-.069.017h-.046c-.025 0-.049-.006-.069-.017s-.037-.027-.047-.047l-.834-1.277V28.545h-.273v-2.032h.238c.022-.001.045.001.066.007.02.008.035.022.044.039l.823 1.253c.016.023.03.047.041.073zM30.197 27.784v.763h-.316v-2.034h.704c.133-.002.265.013.393.044.102.025.197.068.278.127.07.055.124.123.158.199.037.083.055.171.054.26a.5772.5772 0 0 1-.058.26.5594.5594 0 0 1-.17.203.8223.8223 0 0 1-.279.135 1.347 1.347 0 0 1-.38.047l-.382-.005zm0-.218h.382c.083.001.165-.01.244-.031a.554.554 0 0 0 .177-.088.3569.3569 0 0 0 .107-.135.3808.3808 0 0 0 .038-.171c.004-.057-.007-.113-.032-.166s-.062-.1-.11-.139c-.12-.08-.272-.119-.424-.109h-.382v.838zM34.437 28.549h-.249a.116.116 0 0 1-.069-.019.1306.1306 0 0 1-.041-.047l-.215-.492h-1.077l-.222.492a.1148.1148 0 0 1-.11.066h-.249l.946-2.036h.328l.959 2.036zm-1.562-.756h.89l-.375-.829a1.3304 1.3304 0 0 1-.071-.191l-.036.106a.95.95 0 0 1-.035.086l-.372.828zM35.8 26.522c.019.009.035.021.047.036l1.38 1.535v-1.58h.282v2.036h-.158a.1598.1598 0 0 1-.065-.012.1614.1614 0 0 1-.05-.038l-1.379-1.534a.409.409 0 0 1 0 .07v1.514h-.282v-2.036h.167c.02 0 .039.003.057.009zM39.834 27.739v.809h-.316v-.809l-.872-1.226h.282a.116.116 0 0 1 .068.018.187.187 0 0 1 .043.046l.546.791c.022.034.041.065.057.094s.028.058.039.086l.041-.088a.6236.6236 0 0 1 .054-.093l.538-.797c.011-.016.025-.03.041-.043a.1071.1071 0 0 1 .068-.02h.285l-.874 1.232zM27.008 23.095c.137.015.276.027.416.038 2.128-.813 3.929-2.145 5.176-3.828s1.887-3.643 1.838-5.634l-2.346-2.004c.477 2.12.254 4.313-.644 6.331s-2.436 3.783-4.441 5.098z"/>
      <path d="m26.17 23.002.063.011c2.143-1.31 3.776-3.138 4.69-5.25s1.064-4.408.433-6.594l-3.341-2.854c1.351 2.346 1.895 4.972 1.568 7.572s-1.511 5.067-3.414 7.115zM37.5 16.024c-.568 2.188-1.946 4.162-3.931 5.628-.58.43-1.205.814-1.868 1.145 1.616-.406 3.102-1.123 4.342-2.097s2.202-2.178 2.812-3.52L37.5 16.024z"/>
      <path d="m36.968 15.702-1.929-1.648c-.037 1.879-.662 3.716-1.811 5.318s-2.779 2.914-4.721 3.796h.009c.433 0 .865-.022 1.295-.066 1.815-.633 3.418-1.64 4.667-2.931s2.104-2.826 2.489-4.469zM26.449 7.112l-2.301-1.969c-2.057.679-3.827 1.873-5.077 3.426s-1.922 3.392-1.928 5.276c.008 2.082.828 4.103 2.331 5.742s3.603 2.803 5.967 3.308c2.111-2.197 3.346-4.912 3.528-7.75s-.701-5.652-2.52-8.032zM42.286 15.399c-.008-2.47-1.161-4.838-3.205-6.585s-4.815-2.731-7.707-2.739c-1.336-.001-2.661.21-3.907.621l14.09 12.039c.482-1.064.73-2.196.729-3.337z"/>
    </symbol>
    <symbol id="icon-customer4" viewBox="0 0 59 32">
      <path d="M13.759 12.296h-.002c-1.363 0-2.468.996-2.468 2.225v.002c0 1.229 1.105 2.225 2.468 2.225h.002c1.363 0 2.468-.996 2.468-2.225v-.002c0-1.229-1.105-2.225-2.468-2.225zM31.978 11.585c-.004-1.707-.758-3.343-2.096-4.551s-3.153-1.887-5.047-1.891c-1.894.003-3.709.683-5.049 1.89s-2.094 2.844-2.098 4.552v9.414s14.288-1.435 14.289-9.412v-.001zM6.286 24.088c.003 1.188.528 2.326 1.46 3.166s2.194 1.314 3.511 1.317c1.317-.003 2.579-.477 3.511-1.317s1.456-1.978 1.46-3.165v-6.55s-9.942.999-9.942 6.549zm4.971 1.174c-.258 0-.509-.069-.723-.198s-.381-.312-.479-.527-.124-.45-.074-.678c.05-.228.174-.437.356-.601s.414-.276.666-.321c.252-.045.514-.022.752.067s.441.239.584.432c.143.193.219.42.219.652.001.154-.033.308-.098.451s-.161.273-.282.382c-.121.109-.265.196-.423.256s-.328.09-.499.09v-.004zM20.348 23.151v2.438h-.502v-2.438h.502zm.971 1.042v.392h-1.108v-.392h1.108zm.117-1.042v.393h-1.225v-.393h1.225zm2.294 1.162v.116c0 .185-.025.352-.075.499s-.121.273-.213.377a.9185.9185 0 0 1-.328.236c-.126.055-.266.082-.42.082-.153 0-.293-.027-.42-.082a.9455.9455 0 0 1-.328-.236c-.093-.104-.165-.229-.216-.377-.05-.147-.075-.314-.075-.499v-.116c0-.186.025-.353.075-.499.05-.147.121-.273.213-.377a.9383.9383 0 0 1 .328-.238c.127-.055.267-.082.42-.082.154 0 .294.027.42.082.127.055.237.134.328.238.093.104.164.229.214.377.051.146.077.312.077.499zm-.508.116v-.119c0-.13-.012-.243-.035-.342s-.058-.181-.104-.248-.102-.117-.167-.151c-.066-.035-.141-.052-.226-.052s-.16.017-.226.052c-.065.034-.12.084-.166.151-.045.067-.079.15-.102.248s-.035.212-.035.342v.119c0 .128.012.242.035.341.023.098.058.181.104.249.046.067.102.118.167.152s.141.052.226.052c.085 0 .16-.017.226-.052s.121-.085.166-.152c.045-.068.079-.151.102-.249.023-.099.035-.213.035-.341zm2.138.522c0-.044-.007-.083-.02-.117-.012-.036-.036-.068-.07-.097-.035-.03-.083-.06-.146-.089s-.143-.059-.243-.09a3.168 3.168 0 0 1-.315-.121c-.098-.045-.185-.096-.261-.156a.688.688 0 0 1-.177-.209c-.042-.079-.064-.171-.064-.276 0-.102.022-.194.067-.276a.6292.6292 0 0 1 .188-.214c.08-.06.175-.107.285-.139.11-.032.232-.049.363-.049.18 0 .337.032.47.097s.238.154.311.266c.075.113.112.242.112.387h-.499c0-.071-.015-.134-.045-.188-.029-.055-.074-.098-.134-.129-.059-.031-.134-.047-.224-.047-.087 0-.16.013-.218.04-.058.026-.102.061-.131.105a.2618.2618 0 0 0-.044.147c0 .041.01.079.03.112.021.034.052.065.094.094s.092.056.152.082c.06.026.13.051.209.075.133.04.249.085.35.136.102.05.186.107.254.169s.119.133.154.213c.035.079.052.169.052.27 0 .106-.021.201-.062.285s-.101.155-.179.213c-.078.058-.171.102-.28.132s-.229.045-.363.045c-.12 0-.239-.016-.357-.047a1.0716 1.0716 0 0 1-.32-.146c-.095-.065-.171-.147-.228-.248s-.085-.219-.085-.357h.504c0 .076.012.14.035.192s.056.095.099.127c.044.032.095.056.154.07.06.015.126.022.198.022.087 0 .158-.012.214-.037.057-.025.099-.059.126-.102a.2681.2681 0 0 0 .042-.147zm1.934-1.8v2.438h-.501v-2.438h.501zm.75 0v.393h-1.989v-.393h1.989zm1.922 2.046v.392h-1.297v-.392h1.297zm-1.134-2.046v2.438h-.502v-2.438h.502zm.965.993v.382h-1.128v-.382h1.128zm.167-.993v.393h-1.296v-.393h1.296zm.295 0h.909c.186 0 .346.028.48.084.135.056.239.138.311.248s.109.244.109.403c0 .131-.022.243-.067.337a.631.631 0 0 1-.186.233c-.079.061-.172.11-.28.147l-.159.084h-.79l-.003-.392h.588c.088 0 .161-.016.219-.047s.102-.075.131-.131c.03-.056.045-.12.045-.194 0-.078-.015-.146-.044-.203s-.073-.1-.132-.131-.133-.045-.223-.045h-.407v2.044h-.502V23.15zm1.362 2.438-.556-1.086.531-.003.562 1.066v.023h-.537zm2.637-.869h-.621v-.392h.621c.096 0 .174-.016.234-.047.06-.032.104-.077.132-.134s.042-.121.042-.192c0-.073-.014-.14-.042-.203s-.072-.113-.132-.151-.138-.057-.234-.057h-.447v2.044h-.502V23.15h.949c.191 0 .354.035.49.104.137.068.242.162.315.283s.109.258.109.413c0 .157-.036.294-.109.408s-.177.204-.315.266c-.136.062-.3.094-.49.094zm2.896.477v.392h-1.297v-.392h1.297zm-1.133-2.046v2.438h-.502v-2.438h.502zm.964.993v.382h-1.128v-.382h1.128zm.168-.993v.393h-1.296v-.393h1.296zm1.418 0v2.438h-.501v-2.438h.501zm.75 0v.393h-1.989v-.393h1.989zm1.921 2.046v.392h-1.297v-.392h1.297zm-1.133-2.046v2.438h-.502v-2.438h.502zm.964.993v.382h-1.128v-.382h1.128zm.168-.993v.393h-1.296v-.393h1.296zm.294 0h.909c.186 0 .347.028.48.084.135.056.239.138.311.248s.109.244.109.403c0 .131-.022.243-.067.337a.631.631 0 0 1-.186.233c-.079.061-.172.11-.28.147l-.159.084h-.79l-.003-.392h.588c.088 0 .161-.016.219-.047s.102-.075.131-.131c.03-.056.045-.12.045-.194 0-.078-.014-.146-.044-.203s-.073-.1-.132-.131c-.059-.03-.133-.045-.223-.045h-.407v2.044h-.502V23.15zm1.363 2.438-.556-1.086.531-.003.563 1.066v.023h-.537zm2.103-.638c0-.044-.007-.083-.02-.117-.012-.036-.036-.068-.07-.097-.035-.03-.083-.06-.146-.089s-.143-.059-.243-.09a3.0759 3.0759 0 0 1-.315-.121c-.098-.045-.185-.096-.261-.156a.706.706 0 0 1-.178-.209c-.042-.079-.064-.171-.064-.276 0-.102.022-.194.067-.276a.6292.6292 0 0 1 .188-.214c.08-.06.175-.107.285-.139.111-.032.232-.049.363-.049.18 0 .337.032.47.097s.238.154.311.266c.075.113.112.242.112.387h-.499c0-.071-.015-.134-.045-.188-.029-.055-.074-.098-.134-.129-.059-.031-.134-.047-.224-.047-.087 0-.16.013-.218.04-.058.026-.102.061-.131.105a.2618.2618 0 0 0-.044.147c0 .041.01.079.03.112.021.034.052.065.094.094s.092.056.152.082c.06.026.13.051.209.075.133.04.249.085.35.136.102.05.186.107.254.169s.119.133.154.213c.035.079.052.169.052.27 0 .106-.021.201-.062.285s-.101.155-.179.213c-.078.058-.171.102-.28.132s-.229.045-.363.045c-.12 0-.239-.016-.357-.047a1.0716 1.0716 0 0 1-.32-.146c-.095-.065-.171-.147-.228-.248s-.085-.219-.085-.357h.504c0 .076.012.14.035.192s.056.095.099.127c.044.032.095.056.154.07.06.015.126.022.198.022.087 0 .158-.012.214-.037.057-.025.099-.059.126-.102a.2681.2681 0 0 0 .042-.147z"/>
    </symbol>
    <symbol id="icon-customer5" viewBox="0 0 59 32">
      <path d="M15.31 25.356c.14.156.215.352.211.553.007.131-.019.262-.075.383s-.143.229-.252.316c-.273.185-.61.276-.951.255h-1.671v-3.504h1.637c.323-.019.644.063.907.233.106.08.189.18.245.294s.08.238.073.361c.01.193-.058.383-.19.536-.127.139-.303.236-.498.274.222.036.422.143.565.3zm-1.961-.529h.7c.159.011.317-.031.445-.116.053-.043.093-.096.12-.155s.037-.123.031-.187c.005-.063-.006-.127-.031-.186s-.066-.113-.117-.156c-.132-.088-.295-.13-.458-.118h-.688v.919zm1.213 1.344c.056-.044.1-.099.129-.161s.041-.129.036-.195c.004-.068-.009-.135-.038-.198s-.074-.118-.131-.162c-.137-.091-.305-.136-.475-.127h-.734v.964h.744c.167.009.333-.034.47-.122zM18.656 26.862l-.911-1.369h-.342v1.369h-.783v-3.504h1.483c.374-.023.744.083 1.033.298.207.19.332.441.353.707s-.066.529-.242.743c-.183.189-.433.314-.707.356l.97 1.4h-.852zm-1.253-1.847h.641c.445 0 .667-.177.667-.531.005-.072-.008-.145-.036-.212s-.072-.13-.128-.181c-.141-.105-.322-.156-.504-.142h-.648l.008 1.067zM22.939 26.157h-1.561l-.276.705h-.821l1.434-3.465h.888l1.428 3.465h-.822l-.27-.705zm-.209-.53-.57-1.479-.57 1.479h1.141zM28.299 26.863h-.778l-1.744-2.383v2.383h-.776v-3.504h.776l1.744 2.397v-2.397h.778v3.504zM32.737 26.024c-.161.265-.406.48-.704.618-.338.154-.714.23-1.093.221h-1.384v-3.504h1.384c.378-.009.754.065 1.093.216.298.135.543.348.704.611.16.285.243.6.243.919s-.083.634-.243.919zm-.89-.084c.222-.233.344-.529.344-.836s-.122-.603-.344-.836c-.268-.211-.618-.318-.974-.298h-.54v2.268h.54c.355.02.705-.087.974-.298zM23.425 3.867s10.038 3.412 9.825 8.349v8.351s-10.031-3.413-9.821-8.351l-.004-8.349zM42.194 18.611c1.896-1.175 4.089-1.902 6.378-2.116v-2.614c-2.638.915-4.875 2.575-6.378 4.73z"/>
      <path d="M41.055 19.399c1.552-2.813 4.242-4.983 7.517-6.065V5.802s-14.296 4.86-13.993 11.891v11.889s.637-.217 1.639-.625c0-.38 0-.764.046-1.149.296-3.264 2.02-6.289 4.792-8.409z"/>
      <path d="M39.695 23.815c.075-.825.243-1.64.5-2.434-1.726 1.831-2.772 4.103-2.989 6.497-.021.226-.032.452-.038.685.812-.351 1.757-.789 2.75-1.304a11.1032 11.1032 0 0 1-.222-3.443zM40.264 23.858c-.095 1.042-.036 2.09.177 3.117 3.906-2.104 8.294-5.355 8.125-9.284v-.342c-2.791.281-5.401 1.379-7.431 3.126-.475 1.082-.769 2.222-.871 3.383z"/>
    </symbol>
    <symbol id="icon-diagram" viewBox="0 0 32 32">
      <path fill="#4d5ae5" d="M14.926 14.965h1.066v4.798h-1.066v-4.797zM19.19 17.097h1.066v2.665H19.19v-2.665zM10.661 18.696h1.066v1.066h-1.066v-1.066zM7.463 18.163h1.066v1.599H7.463v-1.599z" style="fill:var(--color2, #4d5ae5)"/>
      <path fill="#2e2f42" d="M1.599 28.291h25.587c.883 0 1.599-.716 1.599-1.599V24.56c0-.883-.716-1.599-1.599-1.599h-.533V9.668L29.681 6.8c.703.346 1.553.136 2.013-.499s.396-1.508-.152-2.068-1.42-.644-2.065-.198a1.609 1.609 0 0 0-.542 2.002L26.654 8.2V6.97c0-.883-.716-1.599-1.599-1.599H3.733c-.883 0-1.599.716-1.599 1.599v15.992h-.533c-.883 0-1.599.716-1.599 1.599v2.132c0 .883.716 1.599 1.599 1.599zM30.384 4.837c.294 0 .533.239.533.533s-.239.533-.533.533c-.294 0-.533-.239-.533-.533s.239-.533.533-.533zM3.198 6.969c0-.294.239-.533.533-.533h21.322c.294 0 .533.239.533.533v2.239l-1.066 1.013V8.035c0-.294-.239-.533-.533-.533H4.797c-.294 0-.533.239-.533.533v13.326c0 .294.239.533.533.533h19.19c.294 0 .533-.239.533-.533v-9.674l1.066-1.01v12.284H3.198V6.969zm4.798 6.93c-.721-.002-1.354.478-1.546 1.174s.105 1.433.725 1.801c.62.368 1.41.276 1.928-.226l1.853.93a.532.532 0 0 0 .636-.123l3.939-4.431 3.872 2.901a.533.533 0 0 0 .686-.039l3.365-3.188v8.131H5.33V8.569h18.124v2.66l-3.771 3.572-3.904-2.927a.5332.5332 0 0 0-.718.072l-3.993 4.493-1.493-.746c.011-.064.018-.129.02-.193 0-.883-.716-1.599-1.599-1.599zm.533 1.599c0 .294-.239.533-.533.533s-.533-.239-.533-.533c0-.294.239-.533.533-.533s.533.239.533.533zm3.198 8.529h5.331v.533c0 .294-.239.533-.533.533h-4.264a.5335.5335 0 0 1-.533-.533v-.533zm-10.661.533c0-.294.239-.533.533-.533h9.062v.533c0 .883.716 1.599 1.599 1.599h4.264c.883 0 1.599-.716 1.599-1.599v-.533h9.062c.294 0 .533.239.533.533v2.132c0 .294-.239.533-.533.533H1.598a.5335.5335 0 0 1-.533-.533V24.56z" style="fill:var(--color1, #2e2f42)"/>
    </symbol>
    <symbol id="icon-facebook" viewBox="0 0 32 32">
      <path d="M21.329 5.313h2.921V.225C23.746.156 22.013 0 19.994 0c-4.212 0-7.097 2.649-7.097 7.519V12H8.249v5.688h4.648V32h5.699V17.689h4.46l.708-5.688h-5.169V8.082c.001-1.644.444-2.769 2.735-2.769z"/>
    </symbol>
    <symbol id="icon-instagram" viewBox="0 0 32 32">
      <path d="M31.969 9.408c-.075-1.7-.35-2.869-.744-3.882-.406-1.075-1.031-2.038-1.851-2.838A7.8671 7.8671 0 0 0 26.542.844C25.523.45 24.361.175 22.66.1 20.947.019 20.403 0 16.059 0s-4.888.019-6.595.094c-1.7.075-2.869.35-3.882.744-1.075.406-2.038 1.031-2.838 1.85C1.931 3.488 1.3 4.457.9 5.52.506 6.539.231 7.702.156 9.402c-.081 1.713-.1 2.257-.1 6.601s.019 4.888.094 6.595c.075 1.7.35 2.869.744 3.882.406 1.075 1.038 2.038 1.85 2.838.8.813 1.769 1.444 2.832 1.844 1.019.394 2.182.669 3.882.744 1.706.075 2.25.094 6.595.094s4.888-.019 6.595-.094c1.7-.075 2.869-.35 3.882-.744a8.1814 8.1814 0 0 0 4.682-4.682c.394-1.019.669-2.182.744-3.882.075-1.707.094-2.25.094-6.595s-.006-4.888-.081-6.595zm-2.882 13.065c-.069 1.563-.331 2.407-.55 2.969a5.3097 5.3097 0 0 1-3.038 3.038c-.563.219-1.413.481-2.969.55-1.688.075-2.194.094-6.464.094s-4.782-.019-6.464-.094c-1.563-.069-2.407-.331-2.969-.55-.694-.256-1.325-.663-1.838-1.194-.531-.519-.938-1.144-1.194-1.838-.219-.563-.481-1.413-.55-2.969-.075-1.688-.094-2.194-.094-6.464s.019-4.782.094-6.464c.069-1.563.331-2.407.55-2.969.256-.694.663-1.325 1.2-1.838.519-.531 1.144-.938 1.838-1.194.563-.219 1.413-.481 2.969-.55 1.688-.075 2.194-.094 6.464-.094 4.276 0 4.782.019 6.464.094 1.563.069 2.407.331 2.969.55.694.256 1.325.662 1.838 1.194.531.519.938 1.144 1.194 1.838.219.563.481 1.413.55 2.969.075 1.688.094 2.194.094 6.464s-.019 4.77-.094 6.458z"/>
      <path d="M16.059 7.783c-4.538 0-8.22 3.682-8.22 8.22s3.682 8.22 8.22 8.22c4.539 0 8.22-3.682 8.22-8.22s-3.682-8.22-8.22-8.22zm0 13.552c-2.944 0-5.332-2.388-5.332-5.332s2.388-5.332 5.332-5.332c2.945 0 5.332 2.388 5.332 5.332s-2.388 5.332-5.332 5.332zM26.524 7.458c0 1.06-.859 1.919-1.919 1.919s-1.919-.859-1.919-1.919.859-1.919 1.919-1.919 1.919.859 1.919 1.919z"/>
    </symbol>
    <symbol id="icon-modal-close" viewBox="0 0 32 32">
      <path d="M32 3.223l-3.223-3.223-12.777 12.777-12.777-12.777-3.223 3.223 12.777 12.777-12.777 12.777 3.223 3.223 12.777-12.777 12.777 12.777 3.223-3.223-12.777-12.777 12.777-12.777z"></path>
    </symbol>
    <symbol id="icon-email" viewBox="0 0 24 32">
      <path d="M20 8h-16c-1.1 0-1.99 0.9-1.99 2l-0.010 12c0 1.1 0.9 2 2 2h16c1.1 0 2-0.9 2-2v-12c0-1.1-0.9-2-2-2zM19.6 12.25l-7.070 4.42c-0.32 0.2-0.74 0.2-1.060 0l-7.070-4.42c-0.25-0.16-0.4-0.43-0.4-0.72 0-0.67 0.73-1.070 1.3-0.72l6.7 4.19 6.7-4.19c0.57-0.35 1.3 0.050 1.3 0.72 0 0.29-0.15 0.56-0.4 0.72z"></path>
    </symbol>
    <symbol id="icon-person" viewBox="0 0 32 32">
      <path d="M16 16c2.947 0 5.333-2.387 5.333-5.333s-2.387-5.333-5.333-5.333-5.333 2.387-5.333 5.333 2.387 5.333 5.333 5.333zM16 18.667c-3.56 0-10.667 1.787-10.667 5.333v1.333c0 0.733 0.6 1.333 1.333 1.333h18.667c0.733 0 1.333-0.6 1.333-1.333v-1.333c0-3.547-7.107-5.333-10.667-5.333z"></path>
    </symbol>
    <symbol id="icon-phone" viewBox="0 0 24 32">
      <path d="M19.635 18.487l-2.451-0.28c-0.067-0.008-0.145-0.013-0.224-0.013-0.531 0-1.011 0.215-1.359 0.563l-1.775 1.775c-2.731-1.389-4.969-3.618-6.359-6.359l1.785-1.785c0.348-0.348 0.563-0.828 0.563-1.359 0-0.079-0.005-0.157-0.014-0.233l0.001 0.009-0.28-2.432c-0.116-0.966-0.93-1.708-1.918-1.708-0.001 0-0.001 0-0.002 0h-1.669c-1.090 0-1.997 0.907-1.93 1.997 0.511 8.24 7.102 14.821 15.332 15.332 1.090 0.068 1.997-0.839 1.997-1.93v-1.669c0.010-0.975-0.724-1.795-1.698-1.911z"></path>
    </symbol>
    <symbol id="icon-subscribe" viewBox="0 0 32 32">
      <path d="M32 2.667l-32 15 10.227 3.156 15.773-12.323-11.998 13.488 0.010 0.003-0.012-0.003v7.345l5.735-5.576 7.265 2.242 5-23.333z"></path>
    </symbol>
    <symbol id="icon-checkmark" viewBox="0 0 40 32">
      <path d="M33.782 1.020c0.658-0.631 1.553-1.020 2.539-1.020 0.009 0 0.018 0 0.028 0h-0.001c0.995 0.008 1.894 0.411 2.55 1.060l-0-0c0.681 0.672 1.076 1.584 1.101 2.543 0.001 0.030 0.001 0.064 0.001 0.099 0 0.964-0.367 1.842-0.97 2.502l0.003-0.003-19.578 24.618c-0.33 0.357-0.727 0.647-1.172 0.851l-0.023 0.009c-0.442 0.204-0.959 0.322-1.503 0.322-1.017 0-1.938-0.415-2.601-1.084l-0-0-12.984-13.054c-0.354-0.333-0.642-0.731-0.843-1.177l-0.009-0.023c-0.201-0.443-0.318-0.96-0.318-1.505 0-1.021 0.412-1.946 1.078-2.618l-0 0c0.34-0.342 0.747-0.618 1.2-0.805l0.024-0.009c0.408-0.17 0.881-0.269 1.378-0.269 0.543 0 1.058 0.118 1.521 0.33l-0.023-0.009c0.467 0.212 0.864 0.501 1.193 0.855l0.002 0.002 10.275 10.326 17.042-21.83c0.032-0.040 0.064-0.075 0.098-0.109l0-0h-0.005z"></path>
    </symbol>
    <symbol id="icon-menu-burger" viewBox="0 0 32 32">
      <path d="M6.4 11.733v-2.133h19.2v2.133h-19.2zM6.4 17.067h19.2v-2.133h-19.2v2.133zM6.4 22.4h19.2v-2.133h-19.2v2.133z"></path>
    </symbol>
  </defs>
</svg>
